<svg width="512" height="512" viewBox="0 0 512 512" fill="none" xmlns="http://www.w3.org/2000/svg">
  <defs>
    <linearGradient id="bg" x1="0" y1="0" x2="512" y2="512" gradientUnits="userSpaceOnUse">
      <stop stop-color="#7c3aed"/>
      <stop offset="0.5" stop-color="#0d9488"/>
      <stop offset="1" stop-color="#059669"/>
    </linearGradient>
    <linearGradient id="accent" x1="0" y1="0" x2="1" y2="1" gradientUnits="objectBoundingBox">
      <stop stop-color="#a78bfa"/>
      <stop offset="1" stop-color="#34d399"/>
    </linearGradient>
  </defs>
  <rect width="512" height="512" rx="112" fill="url(#bg)"/>
  <!-- Document body -->
  <path d="M112 88h186l116 96v214a24 24 0 0 1-24 24H112a24 24 0 0 1-24-24V112a24 24 0 0 1 24-24z"
    fill="white" fill-opacity="0.1" stroke="white" stroke-opacity="0.25" stroke-width="10"/>
  <!-- Corner fold -->
  <path d="M298 88l116 96h-68a48 48 0 0 1-48-48V88z"
    fill="white" fill-opacity="0.18"/>
  <!-- ">" chevron — AI cursor -->
  <path d="M148 242l56 40-56 40"
    stroke="url(#accent)" stroke-width="26" stroke-linecap="round" stroke-linejoin="round"/>
  <!-- Command line -->
  <line x1="224" y1="304" x2="364" y2="304"
    stroke="url(#accent)" stroke-width="22" stroke-linecap="round"/>
</svg>
